<svg width="192" height="192" viewBox="0 0 192 192" version="1.1" xmlns="http://www.w3.org/2000/svg" xmlns:xlink="http://www.w3.org/1999/xlink">
<title>ember-db-icon</title>
<desc>Created using Figma</desc>
<g id="Canvas" transform="translate(-1020 -1228)">
<clipPath id="clip-0" clip-rule="evenodd">
<path d="M 1020 1228L 1212 1228L 1212 1420L 1020 1420L 1020 1228Z" fill="#FFFFFF"/>
</clipPath>
<g id="ember-db-icon" clip-path="url(#clip-0)">
<g id="Rectangle">
<use xlink:href="#path0_fill" transform="translate(1020 1228)" fill="#E04E39"/>
</g>
<g id="download">
<g id="Vector">
<use xlink:href="#path1_fill" transform="translate(1079 1277)" fill="#FFFFFF"/>
</g>
</g>
</g>
</g>
<defs>
<path id="path0_fill" d="M 0 45C 0 20.1472 20.1472 0 45 0L 147 0C 171.853 0 192 20.1472 192 45L 192 147C 192 171.853 171.853 192 147 192L 45 192C 20.1472 192 0 171.853 0 147L 0 45Z"/>
<path id="path1_fill" d="M 73 88.0179L 73 91.3393C 73 91.7891 72.8358 92.1783 72.5075 92.507C 72.1791 92.8357 71.7902 93 71.3409 93L 1.65909 93C 1.20975 93 0.820904 92.8357 0.492543 92.507C 0.164181 92.1783 0 91.7891 0 91.3393L 0 88.0179C 0 87.5681 0.164181 87.1788 0.492543 86.8502C 0.820904 86.5215 1.20975 86.3571 1.65909 86.3571L 71.3409 86.3571C 71.7902 86.3571 72.1791 86.5215 72.5075 86.8502C 72.8358 87.1788 73 87.5681 73 88.0179ZM 59.7273 33.2143C 59.7273 35.9129 59.3039 38.404 58.457 40.6875C 57.6102 42.971 56.5041 44.9171 55.1388 46.5259C 53.7736 48.1348 52.2614 49.6571 50.6023 51.0929C 48.9432 52.5287 47.2841 53.8694 45.625 55.115C 43.9659 56.3605 42.4537 57.606 41.0884 58.8516C 39.7231 60.0971 38.6171 61.507 37.7702 63.0812C 36.9234 64.6554 36.5 66.3248 36.5 68.0893C 36.5 71.4107 37.6579 75.2857 39.9737 79.7143L 39.7663 79.6624L 39.8182 79.7143C 36.7074 78.2958 33.9422 76.8599 31.5227 75.4068C 29.1032 73.9537 26.7096 72.2238 24.342 70.2171C 21.9743 68.2104 20.0128 66.0912 18.4574 63.8597C 16.902 61.6281 15.649 59.0246 14.6985 56.0491C 13.748 53.0737 13.2727 49.8906 13.2727 46.5C 13.2727 43.8013 13.6961 41.3103 14.543 39.0268C 15.3898 36.7433 16.4959 34.7972 17.8612 33.1883C 19.2264 31.5795 20.7386 30.0572 22.3977 28.6214C 24.0568 27.1855 25.7159 25.8449 27.375 24.5993C 29.0341 23.3538 30.5463 22.1083 31.9116 20.8627C 33.2769 19.6172 34.3829 18.2073 35.2298 16.6331C 36.0766 15.0589 36.5 13.3895 36.5 11.625C 36.5 8.37277 35.3594 4.49777 33.0781 0L 33.2337 0.0518973L 33.1818 0C 36.2926 1.41853 39.0578 2.85435 41.4773 4.30748C 43.8968 5.7606 46.2904 7.49051 48.658 9.49721C 51.0257 11.5039 52.9872 13.623 54.5426 15.8546C 56.098 18.0862 57.351 20.6897 58.3015 23.6652C 59.252 26.6406 59.7273 29.8237 59.7273 33.2143Z"/>
</defs>
</svg>
